<?xml version="1.0" encoding="UTF-8"?>
<!DOCTYPE svg PUBLIC "-//W3C//DTD SVG 1.1//EN" "http://www.w3.org/Graphics/SVG/1.1/DTD/svg11.dtd">
<svg xmlns="http://www.w3.org/2000/svg" version="1.1" width="512px" height="512px" style="shape-rendering:geometricPrecision; text-rendering:geometricPrecision; image-rendering:optimizeQuality; fill-rule:evenodd; clip-rule:evenodd" xmlns:xlink="http://www.w3.org/1999/xlink">
<g><path style="opacity:0.949" fill="#000000" d="M 156.5,41.5 C 160.95,41.1416 164.45,42.8083 167,46.5C 167.5,54.1594 167.666,61.8261 167.5,69.5C 172.167,69.5 176.833,69.5 181.5,69.5C 181.275,64.752 181.775,60.0853 183,55.5C 188.287,48.8575 193.62,48.8575 199,55.5C 200.225,60.0853 200.725,64.752 200.5,69.5C 205.167,69.5 209.833,69.5 214.5,69.5C 214.334,61.8261 214.5,54.1594 215,46.5C 219.948,40.2449 225.282,39.9116 231,45.5C 232.401,53.4148 232.901,61.4148 232.5,69.5C 237.167,69.5 241.833,69.5 246.5,69.5C 246.334,65.1539 246.501,60.8206 247,56.5C 250.226,51.2341 254.726,49.7341 260.5,52C 262.049,53.214 263.215,54.714 264,56.5C 264.499,60.8206 264.666,65.1539 264.5,69.5C 269.167,69.5 273.833,69.5 278.5,69.5C 278.099,61.4148 278.599,53.4148 280,45.5C 285.718,39.9116 291.052,40.2449 296,46.5C 296.5,54.1594 296.666,61.8261 296.5,69.5C 301.167,69.5 305.833,69.5 310.5,69.5C 310.275,64.752 310.775,60.0853 312,55.5C 317.38,48.8575 322.713,48.8575 328,55.5C 329.225,60.0853 329.725,64.752 329.5,69.5C 334.167,69.5 338.833,69.5 343.5,69.5C 343.334,61.8261 343.5,54.1594 344,46.5C 348.995,40.2317 354.328,39.8984 360,45.5C 361.401,53.4148 361.901,61.4148 361.5,69.5C 366.58,69.2497 371.58,69.7497 376.5,71C 378.049,72.214 379.215,73.714 380,75.5C 380.667,195.833 380.667,316.167 380,436.5C 378.773,438.726 376.939,440.226 374.5,441C 370.179,441.499 365.846,441.666 361.5,441.5C 361.901,449.585 361.401,457.585 360,465.5C 354.282,471.088 348.948,470.755 344,464.5C 343.5,456.841 343.334,449.174 343.5,441.5C 338.833,441.5 334.167,441.5 329.5,441.5C 329.725,446.248 329.225,450.915 328,455.5C 322.667,462.167 317.333,462.167 312,455.5C 310.775,450.915 310.275,446.248 310.5,441.5C 305.833,441.5 301.167,441.5 296.5,441.5C 296.666,449.174 296.5,456.841 296,464.5C 291.005,470.768 285.672,471.102 280,465.5C 278.599,457.585 278.099,449.585 278.5,441.5C 273.833,441.5 269.167,441.5 264.5,441.5C 264.666,445.846 264.499,450.179 264,454.5C 260.774,459.766 256.274,461.266 250.5,459C 248.951,457.786 247.785,456.286 247,454.5C 246.501,450.179 246.334,445.846 246.5,441.5C 241.833,441.5 237.167,441.5 232.5,441.5C 232.901,449.585 232.401,457.585 231,465.5C 225.282,471.088 219.948,470.755 215,464.5C 214.5,456.841 214.334,449.174 214.5,441.5C 209.833,441.5 205.167,441.5 200.5,441.5C 200.725,446.248 200.225,450.915 199,455.5C 193.667,462.167 188.333,462.167 183,455.5C 181.775,450.915 181.275,446.248 181.5,441.5C 176.833,441.5 172.167,441.5 167.5,441.5C 167.666,449.174 167.5,456.841 167,464.5C 162.005,470.768 156.672,471.102 151,465.5C 149.599,457.585 149.099,449.585 149.5,441.5C 145.154,441.666 140.821,441.499 136.5,441C 134.061,440.226 132.227,438.726 131,436.5C 130.333,316.167 130.333,195.833 131,75.5C 131.785,73.714 132.951,72.214 134.5,71C 139.42,69.7497 144.42,69.2497 149.5,69.5C 149.099,61.4148 149.599,53.4148 151,45.5C 152.5,43.5313 154.333,42.198 156.5,41.5 Z M 148.5,87.5 C 219.833,87.5 291.167,87.5 362.5,87.5C 362.5,199.5 362.5,311.5 362.5,423.5C 291.167,423.5 219.833,423.5 148.5,423.5C 148.5,311.5 148.5,199.5 148.5,87.5 Z M 255.5,136.5 C 278.978,151.808 299.478,170.475 317,192.5C 322.21,200.123 325.877,208.457 328,217.5C 328.5,275.832 328.667,334.166 328.5,392.5C 279.833,392.5 231.167,392.5 182.5,392.5C 182.015,332.788 182.515,273.121 184,213.5C 188.797,199.897 196.131,187.897 206,177.5C 221.232,162.083 237.732,148.416 255.5,136.5 Z"/></g>
<g><path style="opacity:0.943" fill="#000000" d="M 251.5,118.5 C 257.672,118.057 263.338,119.557 268.5,123C 292.334,138.846 313.167,158.013 331,180.5C 338.464,191.096 343.464,202.763 346,215.5C 346.667,278.833 346.667,342.167 346,405.5C 344.773,407.726 342.939,409.226 340.5,410C 283.833,410.667 227.167,410.667 170.5,410C 167.943,409.315 166.109,407.815 165,405.5C 164.018,340.13 164.351,274.797 166,209.5C 171.044,193.154 179.377,178.82 191,166.5C 208.808,147.155 228.975,131.155 251.5,118.5 Z M 255.5,136.5 C 237.732,148.416 221.232,162.083 206,177.5C 196.131,187.897 188.797,199.897 184,213.5C 182.515,273.121 182.015,332.788 182.5,392.5C 231.167,392.5 279.833,392.5 328.5,392.5C 328.667,334.166 328.5,275.832 328,217.5C 325.877,208.457 322.21,200.123 317,192.5C 299.478,170.475 278.978,151.808 255.5,136.5 Z"/></g>
</svg>
